<mxfile host="app.diagrams.net" modified="2022-07-14T23:31:52.829Z" agent="5.0 (Windows NT 10.0; Win64; x64) AppleWebKit/537.36 (KHTML, like Gecko) Chrome/102.0.5005.115 Safari/537.36 OPR/88.0.4412.75" etag="zjZNG7nGakJG12SOJJke" version="20.1.1" type="github">
  <diagram id="aMlPHD6MKJcgVGVTGnYk" name="Page-1">
    <mxGraphModel dx="2208" dy="764" grid="1" gridSize="10" guides="1" tooltips="1" connect="1" arrows="1" fold="1" page="1" pageScale="1" pageWidth="827" pageHeight="1169" math="0" shadow="0">
      <root>
        <mxCell id="0" />
        <mxCell id="1" parent="0" />
        <mxCell id="9wcMha7pVhA-jtquBs4k-1" value="Edifícios" style="whiteSpace=wrap;html=1;align=center;" vertex="1" parent="1">
          <mxGeometry x="323.5" y="250" width="100" height="40" as="geometry" />
        </mxCell>
        <mxCell id="9wcMha7pVhA-jtquBs4k-2" value="endereço" style="ellipse;whiteSpace=wrap;html=1;align=center;" vertex="1" parent="1">
          <mxGeometry x="523.5" y="150" width="100" height="40" as="geometry" />
        </mxCell>
        <mxCell id="9wcMha7pVhA-jtquBs4k-3" value="data_construção" style="ellipse;whiteSpace=wrap;html=1;align=center;" vertex="1" parent="1">
          <mxGeometry x="523.5" y="200" width="100" height="40" as="geometry" />
        </mxCell>
        <mxCell id="9wcMha7pVhA-jtquBs4k-4" value="data__ultima_ vistoria" style="ellipse;whiteSpace=wrap;html=1;align=center;" vertex="1" parent="1">
          <mxGeometry x="507" y="100" width="133" height="40" as="geometry" />
        </mxCell>
        <mxCell id="9wcMha7pVhA-jtquBs4k-5" value="" style="endArrow=none;html=1;rounded=0;entryX=0;entryY=0.5;entryDx=0;entryDy=0;exitX=0.5;exitY=0;exitDx=0;exitDy=0;" edge="1" parent="1" source="9wcMha7pVhA-jtquBs4k-1" target="9wcMha7pVhA-jtquBs4k-4">
          <mxGeometry width="50" height="50" relative="1" as="geometry">
            <mxPoint x="383.5" y="440" as="sourcePoint" />
            <mxPoint x="433.5" y="390" as="targetPoint" />
            <Array as="points">
              <mxPoint x="373.5" y="120" />
            </Array>
          </mxGeometry>
        </mxCell>
        <mxCell id="9wcMha7pVhA-jtquBs4k-6" value="" style="endArrow=none;html=1;rounded=0;entryX=0;entryY=0.5;entryDx=0;entryDy=0;exitX=1;exitY=0;exitDx=0;exitDy=0;" edge="1" parent="1" source="9wcMha7pVhA-jtquBs4k-1" target="9wcMha7pVhA-jtquBs4k-3">
          <mxGeometry width="50" height="50" relative="1" as="geometry">
            <mxPoint x="333.5" y="260" as="sourcePoint" />
            <mxPoint x="273.5" y="180" as="targetPoint" />
            <Array as="points">
              <mxPoint x="423.5" y="220" />
            </Array>
          </mxGeometry>
        </mxCell>
        <mxCell id="9wcMha7pVhA-jtquBs4k-7" value="" style="endArrow=none;html=1;rounded=0;entryX=0;entryY=0.5;entryDx=0;entryDy=0;exitX=0.75;exitY=0;exitDx=0;exitDy=0;" edge="1" parent="1" source="9wcMha7pVhA-jtquBs4k-1" target="9wcMha7pVhA-jtquBs4k-2">
          <mxGeometry width="50" height="50" relative="1" as="geometry">
            <mxPoint x="343.5" y="270" as="sourcePoint" />
            <mxPoint x="283.5" y="190" as="targetPoint" />
            <Array as="points">
              <mxPoint x="398.5" y="170" />
            </Array>
          </mxGeometry>
        </mxCell>
        <mxCell id="9wcMha7pVhA-jtquBs4k-8" value="pessoas" style="whiteSpace=wrap;html=1;align=center;" vertex="1" parent="1">
          <mxGeometry x="290" y="490" width="100" height="40" as="geometry" />
        </mxCell>
        <mxCell id="9wcMha7pVhA-jtquBs4k-9" value="apartamentos" style="whiteSpace=wrap;html=1;align=center;" vertex="1" parent="1">
          <mxGeometry x="-53" y="250" width="100" height="40" as="geometry" />
        </mxCell>
        <mxCell id="9wcMha7pVhA-jtquBs4k-10" value="área(m²)" style="ellipse;whiteSpace=wrap;html=1;align=center;" vertex="1" parent="1">
          <mxGeometry x="-170" y="170" width="100" height="40" as="geometry" />
        </mxCell>
        <mxCell id="9wcMha7pVhA-jtquBs4k-14" value="" style="endArrow=none;html=1;rounded=0;exitX=0.25;exitY=0;exitDx=0;exitDy=0;entryX=1;entryY=0.5;entryDx=0;entryDy=0;" edge="1" parent="1" source="9wcMha7pVhA-jtquBs4k-9" target="9wcMha7pVhA-jtquBs4k-31">
          <mxGeometry width="50" height="50" relative="1" as="geometry">
            <mxPoint x="-43" y="250" as="sourcePoint" />
            <mxPoint x="-60" y="230" as="targetPoint" />
            <Array as="points">
              <mxPoint x="-30" y="130" />
            </Array>
          </mxGeometry>
        </mxCell>
        <mxCell id="9wcMha7pVhA-jtquBs4k-15" value="" style="endArrow=none;html=1;rounded=0;entryX=1;entryY=0.5;entryDx=0;entryDy=0;exitX=0;exitY=0;exitDx=0;exitDy=0;" edge="1" parent="1" source="9wcMha7pVhA-jtquBs4k-9" target="9wcMha7pVhA-jtquBs4k-10">
          <mxGeometry width="50" height="50" relative="1" as="geometry">
            <mxPoint x="-33" y="260" as="sourcePoint" />
            <mxPoint x="-93" y="180" as="targetPoint" />
            <Array as="points">
              <mxPoint x="-53" y="190" />
            </Array>
          </mxGeometry>
        </mxCell>
        <mxCell id="9wcMha7pVhA-jtquBs4k-18" value="" style="endArrow=none;html=1;rounded=0;entryX=0;entryY=0.5;entryDx=0;entryDy=0;exitX=0.25;exitY=0;exitDx=0;exitDy=0;" edge="1" parent="1" source="9wcMha7pVhA-jtquBs4k-1" target="9wcMha7pVhA-jtquBs4k-32">
          <mxGeometry width="50" height="50" relative="1" as="geometry">
            <mxPoint x="433.5" y="260" as="sourcePoint" />
            <mxPoint x="528.1446609406726" y="234.14213562373084" as="targetPoint" />
            <Array as="points">
              <mxPoint x="348.5" y="70" />
            </Array>
          </mxGeometry>
        </mxCell>
        <mxCell id="9wcMha7pVhA-jtquBs4k-19" value="nome&lt;span style=&quot;color: rgba(0, 0, 0, 0); font-family: monospace; font-size: 0px; text-align: start;&quot;&gt;%3CmxGraphModel%3E%3Croot%3E%3CmxCell%20id%3D%220%22%2F%3E%3CmxCell%20id%3D%221%22%20parent%3D%220%22%2F%3E%3CmxCell%20id%3D%222%22%20value%3D%22%22%20style%3D%22endArrow%3Dnone%3Bhtml%3D1%3Brounded%3D0%3BentryX%3D0.57%3BentryY%3D1%3BentryDx%3D0%3BentryDy%3D0%3BentryPerimeter%3D0%3BexitX%3D0%3BexitY%3D0%3BexitDx%3D0%3BexitDy%3D0%3B%22%20edge%3D%221%22%20parent%3D%221%22%3E%3CmxGeometry%20width%3D%2250%22%20height%3D%2250%22%20relative%3D%221%22%20as%3D%22geometry%22%3E%3CmxPoint%20x%3D%22-43%22%20y%3D%22240%22%20as%3D%22sourcePoint%22%2F%3E%3CmxPoint%20x%3D%22-103%22%20y%3D%22150%22%20as%3D%22targetPoint%22%2F%3E%3C%2FmxGeometry%3E%3C%2FmxCell%3E%3C%2Froot%3E%3C%2FmxGraphModel%3E&lt;/span&gt;" style="ellipse;whiteSpace=wrap;html=1;align=center;" vertex="1" parent="1">
          <mxGeometry x="230" y="610" width="100" height="40" as="geometry" />
        </mxCell>
        <mxCell id="9wcMha7pVhA-jtquBs4k-20" value="" style="endArrow=none;html=1;rounded=0;entryX=0.5;entryY=0;entryDx=0;entryDy=0;exitX=0.5;exitY=1;exitDx=0;exitDy=0;" edge="1" parent="1" source="9wcMha7pVhA-jtquBs4k-8" target="9wcMha7pVhA-jtquBs4k-19">
          <mxGeometry width="50" height="50" relative="1" as="geometry">
            <mxPoint x="-90" y="380" as="sourcePoint" />
            <mxPoint x="-133" y="280" as="targetPoint" />
          </mxGeometry>
        </mxCell>
        <mxCell id="9wcMha7pVhA-jtquBs4k-24" value="data_nascimento" style="ellipse;whiteSpace=wrap;html=1;align=center;" vertex="1" parent="1">
          <mxGeometry x="110" y="590" width="100" height="40" as="geometry" />
        </mxCell>
        <mxCell id="9wcMha7pVhA-jtquBs4k-25" value="sexo" style="ellipse;whiteSpace=wrap;html=1;align=center;" vertex="1" parent="1">
          <mxGeometry x="340" y="610" width="100" height="40" as="geometry" />
        </mxCell>
        <mxCell id="9wcMha7pVhA-jtquBs4k-26" value="" style="endArrow=none;html=1;rounded=0;exitX=0.5;exitY=1;exitDx=0;exitDy=0;" edge="1" parent="1" source="9wcMha7pVhA-jtquBs4k-8" target="9wcMha7pVhA-jtquBs4k-25">
          <mxGeometry width="50" height="50" relative="1" as="geometry">
            <mxPoint x="350" y="540" as="sourcePoint" />
            <mxPoint x="290" y="620" as="targetPoint" />
          </mxGeometry>
        </mxCell>
        <mxCell id="9wcMha7pVhA-jtquBs4k-27" value="" style="endArrow=none;html=1;rounded=0;exitX=0.75;exitY=1;exitDx=0;exitDy=0;" edge="1" parent="1" source="9wcMha7pVhA-jtquBs4k-8">
          <mxGeometry width="50" height="50" relative="1" as="geometry">
            <mxPoint x="350" y="540" as="sourcePoint" />
            <mxPoint x="480.6516214269277" y="593.8077911320979" as="targetPoint" />
          </mxGeometry>
        </mxCell>
        <mxCell id="9wcMha7pVhA-jtquBs4k-28" value="" style="endArrow=none;html=1;rounded=0;exitX=0.25;exitY=1;exitDx=0;exitDy=0;entryX=1;entryY=0;entryDx=0;entryDy=0;" edge="1" parent="1" source="9wcMha7pVhA-jtquBs4k-8" target="9wcMha7pVhA-jtquBs4k-24">
          <mxGeometry width="50" height="50" relative="1" as="geometry">
            <mxPoint x="360" y="550" as="sourcePoint" />
            <mxPoint x="400.19419324309047" y="630.3883864861809" as="targetPoint" />
          </mxGeometry>
        </mxCell>
        <mxCell id="9wcMha7pVhA-jtquBs4k-29" value="TEM" style="shape=rhombus;perimeter=rhombusPerimeter;whiteSpace=wrap;html=1;align=center;" vertex="1" parent="1">
          <mxGeometry x="130" y="250" width="110" height="40" as="geometry" />
        </mxCell>
        <mxCell id="9wcMha7pVhA-jtquBs4k-31" value="número_ap" style="ellipse;whiteSpace=wrap;html=1;align=center;fontStyle=4;" vertex="1" parent="1">
          <mxGeometry x="-170" y="110" width="100" height="40" as="geometry" />
        </mxCell>
        <mxCell id="9wcMha7pVhA-jtquBs4k-32" value="id_ed" style="ellipse;whiteSpace=wrap;html=1;align=center;fontStyle=4;" vertex="1" parent="1">
          <mxGeometry x="523.5" y="50" width="100" height="40" as="geometry" />
        </mxCell>
        <mxCell id="9wcMha7pVhA-jtquBs4k-36" value="CPF" style="ellipse;whiteSpace=wrap;html=1;align=center;fontStyle=4;" vertex="1" parent="1">
          <mxGeometry x="450" y="590" width="100" height="40" as="geometry" />
        </mxCell>
        <mxCell id="9wcMha7pVhA-jtquBs4k-39" value="POSSUI" style="shape=rhombus;perimeter=rhombusPerimeter;whiteSpace=wrap;html=1;align=center;" vertex="1" parent="1">
          <mxGeometry x="433.5" y="380" width="98.25" height="40" as="geometry" />
        </mxCell>
        <mxCell id="9wcMha7pVhA-jtquBs4k-43" value="" style="edgeStyle=entityRelationEdgeStyle;fontSize=12;html=1;endArrow=ERmandOne;startArrow=ERmandOne;rounded=0;strokeColor=default;exitX=1;exitY=0.5;exitDx=0;exitDy=0;entryX=0;entryY=0.5;entryDx=0;entryDy=0;" edge="1" parent="1" source="9wcMha7pVhA-jtquBs4k-9" target="9wcMha7pVhA-jtquBs4k-29">
          <mxGeometry width="100" height="100" relative="1" as="geometry">
            <mxPoint x="360" y="320" as="sourcePoint" />
            <mxPoint x="460" y="220" as="targetPoint" />
          </mxGeometry>
        </mxCell>
        <mxCell id="9wcMha7pVhA-jtquBs4k-44" value="" style="edgeStyle=entityRelationEdgeStyle;fontSize=12;html=1;endArrow=ERoneToMany;rounded=0;strokeColor=default;entryX=0;entryY=0.5;entryDx=0;entryDy=0;exitX=1;exitY=0.5;exitDx=0;exitDy=0;" edge="1" parent="1" source="9wcMha7pVhA-jtquBs4k-29" target="9wcMha7pVhA-jtquBs4k-1">
          <mxGeometry width="100" height="100" relative="1" as="geometry">
            <mxPoint x="360" y="320" as="sourcePoint" />
            <mxPoint x="460" y="220" as="targetPoint" />
          </mxGeometry>
        </mxCell>
        <mxCell id="9wcMha7pVhA-jtquBs4k-45" value="" style="edgeStyle=entityRelationEdgeStyle;fontSize=12;html=1;endArrow=ERoneToMany;rounded=0;strokeColor=default;exitX=0.5;exitY=0;exitDx=0;exitDy=0;" edge="1" parent="1" source="9wcMha7pVhA-jtquBs4k-39" target="9wcMha7pVhA-jtquBs4k-1">
          <mxGeometry width="100" height="100" relative="1" as="geometry">
            <mxPoint x="250" y="280" as="sourcePoint" />
            <mxPoint x="333.5" y="280" as="targetPoint" />
          </mxGeometry>
        </mxCell>
        <mxCell id="9wcMha7pVhA-jtquBs4k-46" value="" style="edgeStyle=entityRelationEdgeStyle;fontSize=12;html=1;endArrow=ERzeroToMany;endFill=1;rounded=0;strokeColor=default;exitX=0.5;exitY=1;exitDx=0;exitDy=0;entryX=1;entryY=0.5;entryDx=0;entryDy=0;" edge="1" parent="1" source="9wcMha7pVhA-jtquBs4k-39" target="9wcMha7pVhA-jtquBs4k-8">
          <mxGeometry width="100" height="100" relative="1" as="geometry">
            <mxPoint x="360" y="320" as="sourcePoint" />
            <mxPoint x="460" y="220" as="targetPoint" />
          </mxGeometry>
        </mxCell>
      </root>
    </mxGraphModel>
  </diagram>
</mxfile>
